PathFileType	4	(X/Y/Z)	C:/Users/beibeiliu/ov580/test_trc\sequence.38_training_dense_right.trc
DataRate	CameraRate	NumFrames	NumMarkers	Units	OrigDataRate	OrigDataStartFrame	OrigNumFrames
120	120	14	19	mm	120	118	312
Frame#	Time	ThumbCMC			ThumbMCP			ThumbIP			ThumbTip			IndexMCP			IndexPIP			IndexTip			MiddleMCP			MiddlePIP			MiddleTip			RingMCP			RingPIP			RingTip			PinkyMCP			PinkyPIP			PinkyTip			BackHand1			BackHand2			BackHand3	
		X0	Y0	Z0	X1	Y1	Z1	X2	Y2	Z2	X3	Y3	Z3	X4	Y4	Z4	X5	Y5	Z5	X6	Y6	Z6	X7	Y7	Z7	X8	Y8	Z8	X9	Y9	Z9	X10	Y10	Z10	X11	Y11	Z11	X12	Y12	Z12	X13	Y13	Z13	X14	Y14	Z14	X15	Y15	Z15	X16	Y16	Z16	X17	Y17	Z17	X18	Y18	Z18	
117	0.975	194.672	-28.9814	26.6379	179.518	-38.1359	3.8402	181.951	-39.094	-19.9402	183.287	-44.2438	-43.7996	203.095	-33.2689	-40.4598	204.324	-60.6385	-40.5042	205.578	-65.7417	-10.5463	222.395	-39.9452	-37.9398	221.418	-66.7696	-32.858	217.608	-63.5927	1.53063	240.765	-44.6223	-28.877	233.224	-66.6846	-16.8654	224.424	-56.9259	9.76394	253.414	-46.5652	-19.5868	244.185	-63.9072	-10.9762	230.733	-53.8932	12.8013	236.934	-8.34431	6.13257	238.041	-7.89105	36.8688	211.107	-6.19036	17.0733	
118	0.983333	191.828	-28.87	28.003	183.475	-37.8354	-0.167807	179.927	-42.4926	-20.2537	185.044	-45.8819	-43.5255	204.077	-29.9383	-37.8742	205.44	-59.1492	-42.252	204.107	-65.9899	-11.754	222.848	-36.9108	-36.2401	222.309	-66.5315	-32.4108	220.462	-62.4292	1.3704	241.528	-46.2627	-30.1149	233.651	-67.6304	-13.7777	223.399	-57.3998	8.34728	254.228	-41.4085	-18.0382	244.545	-64.5252	-6.25524	232.219	-56.1284	10.7671	239.46	-6.65288	8.6403	238.094	-6.99036	36.003	212.454	-3.86581	17.0087	
119	0.991667	192.581	-29.8619	24.8478	182.982	-40.6978	-0.532167	183.154	-44.2717	-21.2862	186.746	-50.4344	-42.7605	203.993	-28.6247	-37.8338	209.146	-58.4967	-41.5378	206.634	-65.6878	-13.7408	223.756	-38.5458	-39.4345	222.686	-66.4492	-30.9837	221.394	-61.8425	-0.734197	238.603	-41.2654	-29.4	233.541	-66.5035	-15.2753	224.399	-58.0468	5.16964	256.739	-40.4518	-17.9066	242.54	-62.5711	-8.99471	231.398	-54.8351	10.9749	237.467	-7.98324	9.4057	234.412	-5.23017	33.3187	209.518	-5.98369	17.7505	
120	1	190.826	-29.9703	24.9228	182.051	-42.2375	-3.43769	184.73	-47.4294	-23.9317	188.203	-53.9704	-43.6006	207.252	-31.128	-41.3955	207.79	-57.9553	-43.0486	209.327	-66.2962	-15.9044	221.958	-38.289	-39.8364	224.894	-64.4021	-33.1371	219.059	-60.4977	0.164453	240.039	-40.4204	-29.6429	235.495	-64.9636	-19.1092	227.061	-58.0193	6.38776	256.404	-39.6922	-18.0084	246.089	-61.3767	-11.9858	231.707	-54.1592	11.1796	236.266	-6.51536	5.16957	232.925	-4.30413	37.0255	210.215	-3.23535	17.6538	
121	1.00833	190.728	-30.0938	23.0995	183.878	-45.9747	1.81838	185.587	-49.865	-25.6456	189.603	-57.6988	-44.4125	206.799	-28.2242	-39.4076	207.046	-58.7031	-42.2049	209.729	-65.683	-13.6453	226.901	-34.0715	-37.458	224.777	-63.9161	-34.0569	220.045	-57.1535	0.939848	243.2	-39.4195	-30.1092	235.851	-64.1448	-16.9417	223.877	-54.8152	6.19899	255.152	-40.1081	-19.4058	244.078	-59.8198	-13.2851	232.447	-53.6632	11.2244	237.403	-5.2596	6.08867	236.022	-5.43635	34.311	213.371	-4.74596	16.1133	
122	1.01667	189.477	-30.3538	21.9677	183.133	-47.4064	-0.476575	185.353	-52.0322	-23.7299	193.555	-56.9774	-44.92	202.91	-29.0842	-41.9152	206.874	-57.6288	-43.6604	207.367	-65.9027	-19.2211	223.831	-31.7332	-38.76	226.538	-61.3122	-35.426	218.169	-58.8035	-2.23393	241.925	-39.2937	-31.7879	234.14	-63.1653	-19.5203	226.309	-54.6903	6.56335	250.691	-39.4567	-21.6658	244.008	-57.7733	-15.2837	234.558	-50.8315	11.4376	238.807	-3.23429	5.0429	236.467	-4.67178	37.3221	207.542	-3.36906	20.0154	
123	1.025	190.009	-30.3497	23.8184	183.307	-47.5604	-3.42365	185.894	-52.9324	-21.582	190.176	-63.5737	-46.1083	201.086	-25.8492	-41.9531	204.357	-53.4071	-46.9768	210.192	-61.5017	-15.4513	224.784	-31.2231	-40.5697	223.851	-60.8088	-36.1592	217.404	-59.8001	-6.02152	240.099	-38.5777	-34.3341	232.428	-61.3567	-21.7945	226.407	-55.5624	3.03206	255.442	-35.8865	-21.5516	244.049	-58.6941	-11.2935	232.932	-52.0841	10.2074	239.642	-2.82796	6.36224	234.945	-2.51417	36.0146	208.838	-3.72634	19.1462	
124	1.03333	193.322	-29.2346	21.0428	186.563	-46.8897	-0.613348	186.463	-56.2693	-23.5849	195.763	-63.8243	-43.6487	201.433	-24.3574	-44.1389	204.786	-50.6307	-47.2247	205.988	-58.8341	-19.1652	220.964	-30.878	-44.1458	225.353	-57.4187	-41.2911	219.122	-59.1557	-6.79403	241.726	-36.5356	-33.2576	234.746	-61.0116	-23.7978	223.494	-54.3761	2.26934	255.242	-38.989	-23.2046	243.336	-57.5702	-12.5561	231.381	-50.3346	6.13532	237.476	-3.90265	4.88459	232.084	-2.91584	35.4701	207.862	-2.58428	17.7866	
125	1.04167	192.512	-29.2118	22.4927	186.811	-49.8705	-2.90056	189.304	-58.3862	-22.0207	198.474	-66.5203	-44.8245	200.656	-20.2415	-40.8217	201.638	-46.8069	-49.9555	204.981	-56.4296	-19.2619	223.957	-27.0287	-42.5418	219.702	-58.8783	-40.9837	218.555	-57.6687	-7.11067	237.226	-34.8562	-34.7859	233.857	-60.751	-22.7548	224.027	-55.4791	-0.846803	251.014	-33.8611	-21.907	243.419	-55.2094	-18.5449	231.415	-51.2992	3.77637	240.057	-0.69797	5.08565	235.589	-3.03806	33.497	208.778	-2.32165	16.9491	
126	1.05	193.864	-29.989	21.4599	189.091	-49.8825	-0.988855	190.274	-59.4855	-23.4327	201.396	-66.8805	-40.9797	198.83	-19.4759	-40.3205	204.875	-47.4454	-48.6078	207.85	-56.3661	-21.0195	223.514	-27.6664	-44.4894	222.604	-57.0845	-41.8836	220.679	-59.1334	-10.3788	240.567	-35.3809	-35.6869	233.002	-58.686	-26.6206	227.138	-55.5122	1.70369	253.534	-34.279	-22.3417	245.607	-56.9229	-15.7187	230.854	-51.0382	4.83609	236.411	-1.11736	5.31868	237.61	-1.96578	34.8226	209.169	0.0907805	16.872	
127	1.05833	192.708	-28.5265	21.4075	192.27	-47.5121	-3.21817	192.4	-58.8877	-21.3751	202.955	-66.5097	-42.4429	203.934	-18.5023	-40.9576	201.031	-46.1706	-49.2617	203.156	-55.6164	-19.8294	220.273	-24.9379	-43.1585	222.729	-55.9446	-41.6758	217.605	-58.3085	-9.78756	236.609	-32.5664	-35.1963	232.398	-59.935	-25.0667	227.647	-55.8891	-0.610997	253.782	-37.3618	-25.4695	241.8	-56.5777	-15.0604	231.592	-51.3762	6.61678	239.483	-2.34159	5.13372	234.139	-3.80266	37.6935	212.55	-2.02105	20.5958	
128	1.06667	189.902	-29.0823	23.61	190.299	-48.3078	0.803369	193.464	-57.892	-22.1366	203.445	-67.495	-45.3992	200.585	-17.4494	-41.2187	203.804	-41.6986	-50.7768	203.761	-55.1087	-23.5166	220.734	-22.591	-40.4313	218.674	-55.0231	-43.7508	215.805	-57.9032	-10.4118	235.754	-32.4455	-36.8338	230.242	-58.2525	-27.2786	223.813	-52.9676	-0.453775	254.111	-36.5263	-24.7977	241.696	-54.8042	-20.4014	230.043	-50.4666	0.350754	239.125	-2.65945	4.53687	237.486	-0.912609	35.4537	212.071	-1.5703	21.367	
129	1.075	193.299	-28.2049	21.0324	189.964	-47.634	-2.77976	190.642	-58.767	-23.6254	201.71	-67.9636	-43.4997	203.108	-18.2617	-43.136	200.336	-42.6055	-50.4532	202.587	-54.7454	-22.5728	218.865	-24.0676	-44.6457	220.637	-54.4505	-43.7199	212.962	-57.3366	-11.2103	235.68	-30.4188	-35.3779	231.829	-55.7748	-30.863	224.879	-53.3211	-0.560889	250.035	-30.9136	-23.1172	242.629	-55.9661	-16.814	232.984	-50.6957	4.6486	237.319	-1.78775	6.25598	233.991	-2.92338	37.0511	209.506	0.509762	19.8408	
130	1.08333	193.034	-27.0529	23.2303	187.42	-48.4892	-4.9893	192.809	-56.4603	-25.8988	203.791	-65.3326	-43.1704	201.172	-16.1798	-40.7479	198.453	-41.6059	-49.8899	204.03	-54.4534	-22.9182	222.807	-24.629	-44.4061	219.05	-53.5209	-42.6657	215.099	-57.6021	-13.896	237.31	-30.9333	-35.5546	229.572	-56.1545	-28.6905	222.565	-52.8864	-0.381754	248.003	-32.9087	-25.096	243.237	-54.1079	-20.81	228.996	-51.4934	3.95251	235.206	-0.326797	5.79601	238.701	-2.79229	35.3633	211.372	-0.16889	18.6264	
